<?xml version="1.0" encoding="UTF-8" standalone="no"?>
<!-- Created with Inkscape (http://www.inkscape.org/) -->

<svg
   xmlns:dc="http://purl.org/dc/elements/1.1/"
   xmlns:cc="http://creativecommons.org/ns#"
   xmlns:rdf="http://www.w3.org/1999/02/22-rdf-syntax-ns#"
   xmlns:svg="http://www.w3.org/2000/svg"
   xmlns="http://www.w3.org/2000/svg"
   xmlns:sodipodi="http://sodipodi.sourceforge.net/DTD/sodipodi-0.dtd"
   xmlns:inkscape="http://www.inkscape.org/namespaces/inkscape"
   width="221.89894"
   height="362.79639"
   id="svg2"
   sodipodi:version="0.32"
   inkscape:version="0.47 r22583"
   version="1.0"
   sodipodi:docname="pepc-logo.svg"
   inkscape:output_extension="org.inkscape.output.svg.inkscape"
   inkscape:export-filename="/home/zam/m.winkel/schild/schild.png"
   inkscape:export-xdpi="600.02155"
   inkscape:export-ydpi="600.02155"
   style="display:inline">
  <defs
     id="defs4">
    <marker
       inkscape:stockid="DotL"
       orient="auto"
       refY="0"
       refX="0"
       id="DotL"
       style="overflow:visible">
      <path
         id="path3553"
         d="m -2.5,-1 c 0,2.76 -2.24,5 -5,5 -2.76,0 -5,-2.24 -5,-5 0,-2.76 2.24,-5 5,-5 2.76,0 5,2.24 5,5 z"
         style="fill-rule:evenodd;stroke:#000000;stroke-width:1pt;marker-start:none;marker-end:none"
         transform="matrix(0.8,0,0,0.8,5.92,0.8)" />
    </marker>
    <marker
       inkscape:stockid="DotM"
       orient="auto"
       refY="0"
       refX="0"
       id="DotM"
       style="overflow:visible">
      <path
         id="path3556"
         d="m -2.5,-1 c 0,2.76 -2.24,5 -5,5 -2.76,0 -5,-2.24 -5,-5 0,-2.76 2.24,-5 5,-5 2.76,0 5,2.24 5,5 z"
         style="fill-rule:evenodd;stroke:#000000;stroke-width:1pt;marker-start:none;marker-end:none"
         transform="matrix(0.4,0,0,0.4,2.96,0.4)" />
    </marker>
    <marker
       inkscape:stockid="Arrow2Send"
       orient="auto"
       refY="0"
       refX="0"
       id="Arrow2Send"
       style="overflow:visible">
      <path
         id="path3524"
         style="font-size:12px;fill-rule:evenodd;stroke-width:0.625;stroke-linejoin:round"
         d="M 8.7185878,4.0337352 -2.2072895,0.01601326 8.7185884,-4.0017078 c -1.7454984,2.3720609 -1.7354408,5.6174519 -6e-7,8.035443 z"
         transform="matrix(-0.3,0,0,-0.3,0.69,0)" />
    </marker>
    <marker
       inkscape:stockid="Arrow2Lend"
       orient="auto"
       refY="0"
       refX="0"
       id="Arrow2Lend"
       style="overflow:visible">
      <path
         id="path3512"
         style="font-size:12px;fill-rule:evenodd;stroke-width:0.625;stroke-linejoin:round"
         d="M 8.7185878,4.0337352 -2.2072895,0.01601326 8.7185884,-4.0017078 c -1.7454984,2.3720609 -1.7354408,5.6174519 -6e-7,8.035443 z"
         transform="matrix(-1.1,0,0,-1.1,-1.1,0)" />
    </marker>
    <inkscape:perspective
       sodipodi:type="inkscape:persp3d"
       inkscape:vp_x="0 : 526.18109 : 1"
       inkscape:vp_y="0 : 1000 : 0"
       inkscape:vp_z="744.09448 : 526.18109 : 1"
       inkscape:persp3d-origin="372.04724 : 350.78739 : 1"
       id="perspective10" />
    <inkscape:perspective
       id="perspective2464"
       inkscape:persp3d-origin="372.04724 : 350.78739 : 1"
       inkscape:vp_z="744.09448 : 526.18109 : 1"
       inkscape:vp_y="0 : 1000 : 0"
       inkscape:vp_x="0 : 526.18109 : 1"
       sodipodi:type="inkscape:persp3d" />
    <inkscape:perspective
       id="perspective2531"
       inkscape:persp3d-origin="372.04724 : 350.78739 : 1"
       inkscape:vp_z="744.09448 : 526.18109 : 1"
       inkscape:vp_y="0 : 1000 : 0"
       inkscape:vp_x="0 : 526.18109 : 1"
       sodipodi:type="inkscape:persp3d" />
  </defs>
  <sodipodi:namedview
     id="base"
     pagecolor="#ffffff"
     bordercolor="#666666"
     borderopacity="1.0"
     gridtolerance="10000"
     guidetolerance="10"
     objecttolerance="10"
     inkscape:pageopacity="0.0"
     inkscape:pageshadow="2"
     inkscape:zoom="0.49497475"
     inkscape:cx="48.408231"
     inkscape:cy="137.38417"
     inkscape:document-units="px"
     inkscape:current-layer="layer2"
     showgrid="false"
     inkscape:window-width="1131"
     inkscape:window-height="931"
     inkscape:window-x="1302"
     inkscape:window-y="0"
     showguides="true"
     inkscape:guide-bbox="true"
     inkscape:snap-bbox="true"
     inkscape:object-paths="true"
     inkscape:object-nodes="true"
     inkscape:bbox-paths="true"
     inkscape:bbox-nodes="true"
     inkscape:window-maximized="0" />
  <metadata
     id="metadata7">
    <rdf:RDF>
      <cc:Work
         rdf:about="">
        <dc:format>image/svg+xml</dc:format>
        <dc:type
           rdf:resource="http://purl.org/dc/dcmitype/StillImage" />
        <dc:title />
      </cc:Work>
    </rdf:RDF>
  </metadata>
  <g
     inkscape:groupmode="layer"
     id="layer2"
     inkscape:label="center"
     style="display:inline"
     transform="translate(-244.36034,-260.49397)"
     sodipodi:insensitive="true">
    <g
       id="g12206">
      <g
         id="g15186">
        <g
           style="fill:none;display:inline"
           id="g3395"
           transform="matrix(-0.02833011,-0.7186921,0.7838353,-0.02597564,416.82703,591.76175)"
           inkscape:export-filename="/home/zam/m.winkel/schild/schild.png"
           inkscape:export-xdpi="600"
           inkscape:export-ydpi="600">
          <g
             style="fill:none"
             id="g3448">
            <g
               style="fill:#ffffff;fill-opacity:1"
               id="g2544">
              <g
                 style="fill:#ffffff;fill-opacity:1"
                 id="g2541">
                <path
                   style="fill:#ffffff;fill-opacity:1;fill-rule:evenodd;stroke:#000000;stroke-width:5;stroke-linecap:butt;stroke-linejoin:miter;stroke-miterlimit:4;stroke-opacity:1;stroke-dasharray:none"
                   d="M -25,28.076467 C -35.714286,-154.06639 -35.714286,-153.3521 -35.714286,-153.3521 l 13.571429,-27.85715 c 0,0 2.857143,15.35714 65.714286,16.07143 62.857141,0.71429 61.785711,-20.35714 61.785711,-20.35714 L 120,-155.85211 113.92857,21.290752 c 0,0 -10.71428,44.285715 -66.42857,41.071429 C -8.2142857,59.147895 -25.357143,28.43361 -25,28.076467 z"
                   id="path2537" />
              </g>
              <path
                 id="path2539"
                 d="m 119.64286,-156.20925 c 0,0 -10.35715,31.78572 -75.714289,28.21429 -65.357142,-3.57143 -80,-24.64286 -80,-24.64286"
                 style="fill:#ffffff;fill-opacity:1;fill-rule:evenodd;stroke:#000000;stroke-width:3;stroke-linecap:butt;stroke-linejoin:miter;stroke-miterlimit:4;stroke-opacity:1;stroke-dasharray:none" />
            </g>
            <path
               style="fill:#ffffff;fill-opacity:1;fill-rule:evenodd;stroke:#000000;stroke-width:6.58031797;stroke-linecap:butt;stroke-linejoin:miter;stroke-miterlimit:4;stroke-opacity:1;stroke-dasharray:none"
               d="m -19.495776,-186.51773 c -0.33573,-12.42203 23.8368662,-23.83686 59.4243,-23.83686 35.587433,0 62.445876,7.38607 62.781606,20.47956 0.33573,13.09348 -18.129449,24.1726 -59.424302,23.1654 -41.2948514,-1.00719 -62.110141,-6.04314 -62.781604,-19.8081 z"
               id="path3319" />
          </g>
        </g>
        <g
           style="fill:#ffffff;fill-opacity:1;display:inline"
           id="g3457"
           inkscape:export-filename="/home/zam/m.winkel/schild/schild.png"
           inkscape:export-xdpi="600"
           inkscape:export-ydpi="600">
          <path
             id="path3406"
             d="m 320.57407,409.48954 c -3.72469,-1.0603 -3.9982,-1.3836 -3.70446,-4.37899 0.17761,-1.81104 -0.15578,-3.23418 -0.75761,-3.23418 -0.59111,0 -1.07478,0.83869 -1.07478,1.86374 0,4.73474 -8.45649,7.64241 -13.95583,4.79859 -6.25497,-3.23456 -7.22662,-10.95207 -2.17866,-17.3041 2.03692,-2.56309 2.72137,-4.18557 2.04928,-4.85766 -0.67206,-0.67206 -1.71809,-0.10783 -3.13172,1.68931 -2.61856,3.32894 -7.77668,3.6199 -13.65552,0.77032 -6.38807,-3.09641 -8.79513,-6.3525 -9.31306,-12.59812 -0.50056,-6.03599 0.89161,-11.31636 4.49284,-17.04102 1.62917,-2.58981 1.96358,-3.78808 1.05711,-3.78808 -0.7292,0 -1.77622,0.45036 -2.32665,1.00079 -1.65822,1.65826 -5.31792,-1.71923 -6.04136,-5.5755 -0.90369,-4.81693 0.27971,-10.28012 2.76513,-12.76553 1.666,-1.66597 2.85019,-1.95136 6.00457,-1.44695 2.39069,0.38227 3.9293,0.2281 3.9293,-0.39376 0,-0.56214 -0.45457,-1.0221 -1.01015,-1.0221 -1.53633,0 -1.20542,-3.63118 0.45659,-5.01053 0.8067,-0.66951 2.39771,-0.92182 3.53554,-0.56069 3.23178,1.02573 2.42576,-1.10688 -0.94627,-2.50361 -5.65911,-2.34408 -5.95275,-10.65178 -0.62348,-17.63882 3.42853,-4.49498 12.45159,-8.83872 16.62608,-8.00383 2.05465,0.41093 3.17489,0.234 3.17489,-0.50143 0,-0.62504 -0.85348,-1.13643 -1.89662,-1.13643 -3.63584,0 -6.02162,-5.61755 -4.22642,-9.95153 1.0073,-2.43179 9.67948,-9.0633 15.97761,-12.21784 1.25312,-0.62766 5.23061,-1.41687 8.83884,-1.75382 3.6082,-0.33694 6.5604,-1.00145 6.5604,-1.47669 0,-0.47525 -0.45456,-0.86408 -1.01015,-0.86408 -1.66425,0 -1.14145,-3.60867 0.77393,-5.34206 0.98123,-0.88803 3.93595,-2.09682 6.56599,-2.68622 4.52031,-1.01302 6.37086,-0.84753 16.65121,1.48923 1.41825,0.32238 2.27284,1.26902 2.27284,2.51768 0,2.2381 1.53353,2.70629 2.3023,0.70292 0.27397,-0.71399 2.37542,-2.59911 4.66988,-4.18917 5.9178,-4.10103 14.89444,-4.07908 24.82282,0.0607 6.71742,2.80091 7.13326,3.17227 8.90988,7.95726 2.2898,6.16712 2.44519,6.32852 4.01966,4.17531 0.90439,-1.23681 3.34765,-1.90729 8.53482,-2.34217 7.82204,-0.65578 9.7376,0.0224 15.68355,5.55244 2.84651,2.64741 3.89792,8.46526 1.76777,9.78177 -1.25282,0.77428 -1.34249,4.54568 -0.10808,4.54568 0.49615,0 1.18775,-0.74444 1.5369,-1.65431 0.88931,-2.31758 10.00792,-1.29807 15.06223,1.68404 7.03162,4.14878 10.05902,14.94844 5.7323,20.44896 -2.70222,3.43533 -2.55078,4.04201 0.82389,3.30081 3.3411,-0.73384 7.45271,2.01933 9.8029,6.56411 2.12342,4.10621 1.93083,12.65612 -0.35963,15.96747 -3.65393,5.28256 -3.70641,5.5538 -0.93961,4.85938 2.15669,-0.54129 2.75196,-0.17327 3.79587,2.34694 1.33256,3.21711 0.45794,7.23917 -2.58368,11.88125 l -1.54251,2.35417 -2.70671,-2.12909 c -3.36077,-2.6436 -4.18886,-0.95819 -1.3207,2.6881 6.19313,7.87325 -1.80389,24.24497 -14.46229,29.60766 -7.08173,3.00016 -13.94714,4.39675 -14.80335,3.01136 -0.53545,-0.86637 -1.37854,-0.61265 -3.00771,0.90517 -4.29363,4.00012 -9.07894,5.54178 -16.94852,5.46026 -4.10279,-0.0425 -7.70806,-0.32572 -8.0117,-0.62936 -0.92661,-0.92657 1.77162,-3.49068 4.0232,-3.82326 1.16623,-0.17224 2.31734,-0.91094 2.5581,-1.64153 0.33009,-1.00168 -0.40607,-1.17007 -2.99322,-0.68472 -2.86022,0.53657 -3.88406,0.19055 -6.15474,-2.08012 -2.00652,-2.00655 -2.56517,-3.35574 -2.12144,-5.12367 0.81741,-3.25683 -0.64561,-3.01699 -3.84629,0.63057 -3.77558,4.3027 -9.28085,4.3057 -11.72728,0.006 -1.90485,-3.34752 -3.70961,-4.10003 -2.77563,-1.15733 0.35141,1.10715 -0.20662,2.87137 -1.35791,4.29315 -1.58276,1.95462 -2.90241,2.41364 -6.93919,2.41364 -5.64553,0 -8.32573,-1.66576 -8.32573,-5.17445 0,-1.32093 -0.45457,-2.40169 -1.01015,-2.40169 -0.55559,0 -1.01269,1.02277 -1.01579,2.27284 -0.0157,6.34353 -1.86255,9.34282 -7.60184,12.34551 -5.44833,2.85045 -5.69904,2.88673 -8.50296,1.23041 -3.72236,-2.19887 -4.44429,-2.15037 -3.81493,0.25628 1.10802,4.23713 -7.91859,7.6501 -14.94387,5.65026 l -2e-5,0 z"
             style="fill:#ffffff;fill-opacity:1;stroke:#000000;stroke-width:5.05076265;stroke-miterlimit:4;stroke-opacity:1;stroke-dasharray:none" />
          <path
             id="path3408"
             d="m 351.54587,511.85451 c -3.68646,-2.71102 -4.18376,-3.55374 -4.18376,-7.08959 0,-2.41801 -0.40147,-3.76471 -1.01016,-3.38852 -0.55558,0.34337 -1.01015,1.96119 -1.01015,3.59515 0,2.82906 -0.20818,2.97084 -4.36234,2.97084 -2.39931,0 -6.68729,0.69044 -9.5289,1.5343 -4.10879,1.2202 -7.4036,1.36532 -16.09325,0.7089 l -10.92669,-0.82539 7.17995,-2.22414 c 3.94901,-1.22327 8.39121,-2.22413 9.87159,-2.22413 4.67881,0 11.0568,-6.95364 14.13491,-15.41075 1.46488,-4.02473 2.66564,-8.22682 2.6684,-9.33799 0.003,-1.11116 1.14515,-4.46955 2.53867,-7.46308 3.21661,-6.90987 3.98292,-18.9186 2.77305,-43.45504 -0.81484,-16.52459 -1.00124,-17.67221 -3.09673,-19.06357 -1.22637,-0.81425 -2.22973,-1.88827 -2.22973,-2.38667 0,-1.03199 4.95928,-0.0468 6.72191,1.3354 0.64133,0.5029 2.38363,0.60876 3.87175,0.23527 2.10574,-0.52849 2.58587,-1.13729 2.16534,-2.74544 -0.68388,-2.61521 2.10507,-4.81863 5.15603,-4.07351 1.76984,0.43223 2.47921,-0.0314 3.28306,-2.14567 0.99635,-2.6206 1.23908,-2.69079 8.56474,-2.47689 4.97103,0.14515 8.07522,-0.22462 9.11245,-1.08544 0.86522,-0.71808 3.38223,-1.35566 5.59336,-1.41687 3.19798,-0.0885 4.02006,0.25024 4.01945,1.65647 -8.6e-4,2.03681 3.02049,2.38306 4.84797,0.55558 0.8226,-0.82259 1.54275,-0.88161 2.24076,-0.18361 0.69798,0.69801 0.0501,3.40141 -2.01591,8.41153 -1.67446,4.06064 -3.52225,9.15723 -4.10618,11.32577 -0.58395,2.16855 -1.44354,3.70681 -1.91024,3.41837 -0.46672,-0.28843 -1.36044,0.0924 -1.98609,0.84623 -1.67822,2.02209 13.2576,2.15752 20.8541,0.18907 7.87916,-2.04169 17.5805,-2.48198 18.16411,-0.82436 0.2795,0.79383 -0.50115,1.26269 -2.10231,1.26269 -8.72607,0 -31.06697,8.2311 -35.43183,13.05422 -1.04426,1.15393 -2.73741,2.09807 -3.76247,2.09807 -2.07693,0 -2.30047,0.78182 -0.8666,3.03046 0.8202,1.28627 1.20813,1.17178 2.56719,-0.75762 0.88055,-1.25006 1.96701,-2.27284 2.41437,-2.27284 0.44732,0 1.10816,2.87739 1.46847,6.39419 0.36034,3.5168 1.30817,8.90148 2.10636,11.96595 0.7982,3.06447 1.93578,10.29327 2.52797,16.06401 1.08359,10.5593 4.10666,23.31487 6.74226,28.44833 1.87067,3.64359 5.30693,5.83884 13.40632,8.56452 l 6.66079,2.24156 -8.08122,-0.55403 c -10.84358,-0.74342 -16.46445,-2.20298 -17.18125,-4.46143 -0.83824,-2.64096 -9.58779,-5.45307 -9.58779,-3.08152 0,0.51252 1.59447,1.45803 3.54329,2.1012 1.9488,0.64319 3.98204,1.98922 4.51831,2.99124 0.53625,1.00205 2.56238,2.11964 4.50249,2.48361 5.95046,1.11631 4.84871,2.24288 -1.76423,1.80401 -3.43983,-0.22829 -7.23071,-1.03103 -8.42425,-1.78389 -1.19354,-0.75282 -6.33972,-1.68358 -11.43598,-2.06829 -9.19723,-0.69431 -9.26131,-0.71783 -8.64501,-3.17339 0.91591,-3.64946 -1.74016,-2.38135 -3.00419,1.43428 -1.15801,3.49543 -3.11486,6.09564 -5.5807,7.41532 -1.25655,0.67251 -2.81292,0.10114 -5.89147,-2.16284 l 10e-6,-3e-5 z m 34.64342,-21.33725 c -0.40111,-1.80565 -1.32902,-7.37412 -2.06201,-12.37437 l -1.33271,-9.09138 0.51155,11.06242 c 0.44356,9.59265 1.38599,13.68632 3.15081,13.68632 0.25391,0 0.13347,-1.47735 -0.26764,-3.28299 z m -13.1773,-18.55379 c -0.98933,-14.78656 -2.43664,-13.56822 -1.94077,1.63373 0.24465,7.50038 0.51155,13.86435 0.59309,14.14214 0.0816,0.27779 0.55676,-1.08592 1.05605,-3.03046 0.49929,-1.94454 0.63051,-7.67998 0.2916,-12.7454 l 3e-5,-1e-5 z m -17.63562,2.859 c 1.74176,-4.45664 2.08726,-7.59181 2.08726,-18.94033 0,-8.39301 -0.38674,-13.59967 -1.01015,-13.59967 -0.6249,0 -1.01015,5.34559 -1.01015,14.01644 0,12.75468 -0.22734,14.53049 -2.52539,19.72678 -2.89447,6.54494 -3.11574,7.69876 -1.07711,5.61666 0.79653,-0.81354 2.38753,-3.88247 3.53553,-6.81985 l 1e-5,-3e-5 z"
             style="fill:#ffffff;fill-opacity:1;stroke:#000000;stroke-width:5.05076265;stroke-miterlimit:4;stroke-opacity:1;stroke-dasharray:none" />
          <path
             id="path3442"
             d="m 323.21577,499.76109 c -0.37168,-0.69448 -0.96488,-1.26269 -1.31823,-1.26269 -0.35336,0 -0.79189,-0.24178 -0.97453,-0.53729 -0.22405,-0.36254 0.24025,-0.42992 1.42758,-0.20718 2.26118,0.42421 2.60599,-0.18653 1.5688,-2.77873 -1.06199,-2.65416 -0.63773,-3.11296 0.73196,-0.79152 0.58065,0.98415 1.40432,1.78934 1.83038,1.78934 0.81066,0 1.07895,-3.46958 0.85921,-11.11168 l -0.0944,-3.283 0.97809,2.32642 c 1.36416,3.24474 2.23505,9.79142 1.48817,11.18697 -0.68757,1.28473 -4.97341,5.93205 -5.47064,5.93205 -0.19284,0 -0.65471,-0.56821 -1.02638,-1.26269 z"
             style="fill:#ffffff;fill-opacity:1;stroke:#000000;stroke-width:2.52538133;stroke-miterlimit:4;stroke-opacity:1;stroke-dasharray:none" />
        </g>
        <g
           style="fill:#ffffff;fill-opacity:1;display:inline"
           inkscape:export-ydpi="600"
           inkscape:export-xdpi="600"
           inkscape:export-filename="/home/zam/m.winkel/schild/schild.png"
           transform="matrix(-0.02833011,-0.7186921,0.7838353,-0.02597564,416.82703,591.76175)"
           id="g2660">
          <g
             style="fill:#ffffff;fill-opacity:1"
             id="g2662">
            <g
               style="fill:#ffffff;fill-opacity:1"
               id="g2664">
              <g
                 style="fill:#ffffff;fill-opacity:1"
                 id="g2666">
                <path
                   id="path2668"
                   d="M -25,28.076467 C -35.714286,-154.06639 -35.714286,-153.3521 -35.714286,-153.3521 l 13.571429,-27.85715 c 0,0 2.857143,15.35714 65.714286,16.07143 62.857141,0.71429 61.785711,-20.35714 61.785711,-20.35714 L 120,-155.85211 113.92857,21.290752 c 0,0 -10.71428,44.285715 -66.42857,41.071429 C -8.2142857,59.147895 -25.357143,28.43361 -25,28.076467 z"
                   style="fill:#ffffff;fill-opacity:1;fill-rule:evenodd;stroke:#000000;stroke-width:5;stroke-linecap:butt;stroke-linejoin:miter;stroke-miterlimit:4;stroke-opacity:1;stroke-dasharray:none" />
              </g>
              <path
                 style="fill:#ffffff;fill-opacity:1;fill-rule:evenodd;stroke:#000000;stroke-width:3;stroke-linecap:butt;stroke-linejoin:miter;stroke-miterlimit:4;stroke-opacity:1;stroke-dasharray:none"
                 d="m 119.64286,-156.20925 c 0,0 -10.35715,31.78572 -75.714289,28.21429 -65.357142,-3.57143 -80,-24.64286 -80,-24.64286"
                 id="path2670" />
            </g>
            <path
               id="path2672"
               d="m -19.495776,-186.51773 c -0.33573,-12.42203 23.8368662,-23.83686 59.4243,-23.83686 35.587433,0 62.445876,7.38607 62.781606,20.47956 0.33573,13.09348 -18.129449,24.1726 -59.424302,23.1654 -41.2948514,-1.00719 -62.110141,-6.04314 -62.781604,-19.8081 z"
               style="fill:#ffffff;fill-opacity:1;fill-rule:evenodd;stroke:#000000;stroke-width:6.58031797;stroke-linecap:butt;stroke-linejoin:miter;stroke-miterlimit:4;stroke-opacity:1;stroke-dasharray:none" />
          </g>
        </g>
        <g
           style="fill:#ffffff;fill-opacity:1;display:inline"
           inkscape:export-ydpi="600"
           inkscape:export-xdpi="600"
           inkscape:export-filename="/home/zam/m.winkel/schild/schild.png"
           id="g2678">
          <path
             style="fill:#ffffff;fill-opacity:1;stroke:#000000;stroke-width:5.05076265;stroke-miterlimit:4;stroke-opacity:1;stroke-dasharray:none"
             d="m 320.57407,409.48954 c -3.72469,-1.0603 -3.9982,-1.3836 -3.70446,-4.37899 0.17761,-1.81104 -0.15578,-3.23418 -0.75761,-3.23418 -0.59111,0 -1.07478,0.83869 -1.07478,1.86374 0,4.73474 -8.45649,7.64241 -13.95583,4.79859 -6.25497,-3.23456 -7.22662,-10.95207 -2.17866,-17.3041 2.03692,-2.56309 2.72137,-4.18557 2.04928,-4.85766 -0.67206,-0.67206 -1.71809,-0.10783 -3.13172,1.68931 -2.61856,3.32894 -7.77668,3.6199 -13.65552,0.77032 -6.38807,-3.09641 -8.79513,-6.3525 -9.31306,-12.59812 -0.50056,-6.03599 0.89161,-11.31636 4.49284,-17.04102 1.62917,-2.58981 1.96358,-3.78808 1.05711,-3.78808 -0.7292,0 -1.77622,0.45036 -2.32665,1.00079 -1.65822,1.65826 -5.31792,-1.71923 -6.04136,-5.5755 -0.90369,-4.81693 0.27971,-10.28012 2.76513,-12.76553 1.666,-1.66597 2.85019,-1.95136 6.00457,-1.44695 2.39069,0.38227 3.9293,0.2281 3.9293,-0.39376 0,-0.56214 -0.45457,-1.0221 -1.01015,-1.0221 -1.53633,0 -1.20542,-3.63118 0.45659,-5.01053 0.8067,-0.66951 2.39771,-0.92182 3.53554,-0.56069 3.23178,1.02573 2.42576,-1.10688 -0.94627,-2.50361 -5.65911,-2.34408 -5.95275,-10.65178 -0.62348,-17.63882 3.42853,-4.49498 12.45159,-8.83872 16.62608,-8.00383 2.05465,0.41093 3.17489,0.234 3.17489,-0.50143 0,-0.62504 -0.85348,-1.13643 -1.89662,-1.13643 -3.63584,0 -6.02162,-5.61755 -4.22642,-9.95153 1.0073,-2.43179 9.67948,-9.0633 15.97761,-12.21784 1.25312,-0.62766 5.23061,-1.41687 8.83884,-1.75382 3.6082,-0.33694 6.5604,-1.00145 6.5604,-1.47669 0,-0.47525 -0.45456,-0.86408 -1.01015,-0.86408 -1.66425,0 -1.14145,-3.60867 0.77393,-5.34206 0.98123,-0.88803 3.93595,-2.09682 6.56599,-2.68622 4.52031,-1.01302 6.37086,-0.84753 16.65121,1.48923 1.41825,0.32238 2.27284,1.26902 2.27284,2.51768 0,2.2381 1.53353,2.70629 2.3023,0.70292 0.27397,-0.71399 2.37542,-2.59911 4.66988,-4.18917 5.9178,-4.10103 14.89444,-4.07908 24.82282,0.0607 6.71742,2.80091 7.13326,3.17227 8.90988,7.95726 2.2898,6.16712 2.44519,6.32852 4.01966,4.17531 0.90439,-1.23681 3.34765,-1.90729 8.53482,-2.34217 7.82204,-0.65578 9.7376,0.0224 15.68355,5.55244 2.84651,2.64741 3.89792,8.46526 1.76777,9.78177 -1.25282,0.77428 -1.34249,4.54568 -0.10808,4.54568 0.49615,0 1.18775,-0.74444 1.5369,-1.65431 0.88931,-2.31758 10.00792,-1.29807 15.06223,1.68404 7.03162,4.14878 10.05902,14.94844 5.7323,20.44896 -2.70222,3.43533 -2.55078,4.04201 0.82389,3.30081 3.3411,-0.73384 7.45271,2.01933 9.8029,6.56411 2.12342,4.10621 1.93083,12.65612 -0.35963,15.96747 -3.65393,5.28256 -3.70641,5.5538 -0.93961,4.85938 2.15669,-0.54129 2.75196,-0.17327 3.79587,2.34694 1.33256,3.21711 0.45794,7.23917 -2.58368,11.88125 l -1.54251,2.35417 -2.70671,-2.12909 c -3.36077,-2.6436 -4.18886,-0.95819 -1.3207,2.6881 6.19313,7.87325 -1.80389,24.24497 -14.46229,29.60766 -7.08173,3.00016 -13.94714,4.39675 -14.80335,3.01136 -0.53545,-0.86637 -1.37854,-0.61265 -3.00771,0.90517 -4.29363,4.00012 -9.07894,5.54178 -16.94852,5.46026 -4.10279,-0.0425 -7.70806,-0.32572 -8.0117,-0.62936 -0.92661,-0.92657 1.77162,-3.49068 4.0232,-3.82326 1.16623,-0.17224 2.31734,-0.91094 2.5581,-1.64153 0.33009,-1.00168 -0.40607,-1.17007 -2.99322,-0.68472 -2.86022,0.53657 -3.88406,0.19055 -6.15474,-2.08012 -2.00652,-2.00655 -2.56517,-3.35574 -2.12144,-5.12367 0.81741,-3.25683 -0.64561,-3.01699 -3.84629,0.63057 -3.77558,4.3027 -9.28085,4.3057 -11.72728,0.006 -1.90485,-3.34752 -3.70961,-4.10003 -2.77563,-1.15733 0.35141,1.10715 -0.20662,2.87137 -1.35791,4.29315 -1.58276,1.95462 -2.90241,2.41364 -6.93919,2.41364 -5.64553,0 -8.32573,-1.66576 -8.32573,-5.17445 0,-1.32093 -0.45457,-2.40169 -1.01015,-2.40169 -0.55559,0 -1.01269,1.02277 -1.01579,2.27284 -0.0157,6.34353 -1.86255,9.34282 -7.60184,12.34551 -5.44833,2.85045 -5.69904,2.88673 -8.50296,1.23041 -3.72236,-2.19887 -4.44429,-2.15037 -3.81493,0.25628 1.10802,4.23713 -7.91859,7.6501 -14.94387,5.65026 l -2e-5,0 z"
             id="path2680" />
          <path
             style="fill:#ffffff;fill-opacity:1;stroke:#000000;stroke-width:5.05076265;stroke-miterlimit:4;stroke-opacity:1;stroke-dasharray:none"
             d="m 351.54587,511.85451 c -3.68646,-2.71102 -4.18376,-3.55374 -4.18376,-7.08959 0,-2.41801 -0.40147,-3.76471 -1.01016,-3.38852 -0.55558,0.34337 -1.01015,1.96119 -1.01015,3.59515 0,2.82906 -0.20818,2.97084 -4.36234,2.97084 -2.39931,0 -6.68729,0.69044 -9.5289,1.5343 -4.10879,1.2202 -7.4036,1.36532 -16.09325,0.7089 l -10.92669,-0.82539 7.17995,-2.22414 c 3.94901,-1.22327 8.39121,-2.22413 9.87159,-2.22413 4.67881,0 11.0568,-6.95364 14.13491,-15.41075 1.46488,-4.02473 2.66564,-8.22682 2.6684,-9.33799 0.003,-1.11116 1.14515,-4.46955 2.53867,-7.46308 3.21661,-6.90987 3.98292,-18.9186 2.77305,-43.45504 -0.81484,-16.52459 -1.00124,-17.67221 -3.09673,-19.06357 -1.22637,-0.81425 -2.22973,-1.88827 -2.22973,-2.38667 0,-1.03199 4.95928,-0.0468 6.72191,1.3354 0.64133,0.5029 2.38363,0.60876 3.87175,0.23527 2.10574,-0.52849 2.58587,-1.13729 2.16534,-2.74544 -0.68388,-2.61521 2.10507,-4.81863 5.15603,-4.07351 1.76984,0.43223 2.47921,-0.0314 3.28306,-2.14567 0.99635,-2.6206 1.23908,-2.69079 8.56474,-2.47689 4.97103,0.14515 8.07522,-0.22462 9.11245,-1.08544 0.86522,-0.71808 3.38223,-1.35566 5.59336,-1.41687 3.19798,-0.0885 4.02006,0.25024 4.01945,1.65647 -8.6e-4,2.03681 3.02049,2.38306 4.84797,0.55558 0.8226,-0.82259 1.54275,-0.88161 2.24076,-0.18361 0.69798,0.69801 0.0501,3.40141 -2.01591,8.41153 -1.67446,4.06064 -3.52225,9.15723 -4.10618,11.32577 -0.58395,2.16855 -1.44354,3.70681 -1.91024,3.41837 -0.46672,-0.28843 -1.36044,0.0924 -1.98609,0.84623 -1.67822,2.02209 13.2576,2.15752 20.8541,0.18907 7.87916,-2.04169 17.5805,-2.48198 18.16411,-0.82436 0.2795,0.79383 -0.50115,1.26269 -2.10231,1.26269 -8.72607,0 -31.06697,8.2311 -35.43183,13.05422 -1.04426,1.15393 -2.73741,2.09807 -3.76247,2.09807 -2.07693,0 -2.30047,0.78182 -0.8666,3.03046 0.8202,1.28627 1.20813,1.17178 2.56719,-0.75762 0.88055,-1.25006 1.96701,-2.27284 2.41437,-2.27284 0.44732,0 1.10816,2.87739 1.46847,6.39419 0.36034,3.5168 1.30817,8.90148 2.10636,11.96595 0.7982,3.06447 1.93578,10.29327 2.52797,16.06401 1.08359,10.5593 4.10666,23.31487 6.74226,28.44833 1.87067,3.64359 5.30693,5.83884 13.40632,8.56452 l 6.66079,2.24156 -8.08122,-0.55403 c -10.84358,-0.74342 -16.46445,-2.20298 -17.18125,-4.46143 -0.83824,-2.64096 -9.58779,-5.45307 -9.58779,-3.08152 0,0.51252 1.59447,1.45803 3.54329,2.1012 1.9488,0.64319 3.98204,1.98922 4.51831,2.99124 0.53625,1.00205 2.56238,2.11964 4.50249,2.48361 5.95046,1.11631 4.84871,2.24288 -1.76423,1.80401 -3.43983,-0.22829 -7.23071,-1.03103 -8.42425,-1.78389 -1.19354,-0.75282 -6.33972,-1.68358 -11.43598,-2.06829 -9.19723,-0.69431 -9.26131,-0.71783 -8.64501,-3.17339 0.91591,-3.64946 -1.74016,-2.38135 -3.00419,1.43428 -1.15801,3.49543 -3.11486,6.09564 -5.5807,7.41532 -1.25655,0.67251 -2.81292,0.10114 -5.89147,-2.16284 l 10e-6,-3e-5 z m 34.64342,-21.33725 c -0.40111,-1.80565 -1.32902,-7.37412 -2.06201,-12.37437 l -1.33271,-9.09138 0.51155,11.06242 c 0.44356,9.59265 1.38599,13.68632 3.15081,13.68632 0.25391,0 0.13347,-1.47735 -0.26764,-3.28299 z m -13.1773,-18.55379 c -0.98933,-14.78656 -2.43664,-13.56822 -1.94077,1.63373 0.24465,7.50038 0.51155,13.86435 0.59309,14.14214 0.0816,0.27779 0.55676,-1.08592 1.05605,-3.03046 0.49929,-1.94454 0.63051,-7.67998 0.2916,-12.7454 l 3e-5,-1e-5 z m -17.63562,2.859 c 1.74176,-4.45664 2.08726,-7.59181 2.08726,-18.94033 0,-8.39301 -0.38674,-13.59967 -1.01015,-13.59967 -0.6249,0 -1.01015,5.34559 -1.01015,14.01644 0,12.75468 -0.22734,14.53049 -2.52539,19.72678 -2.89447,6.54494 -3.11574,7.69876 -1.07711,5.61666 0.79653,-0.81354 2.38753,-3.88247 3.53553,-6.81985 l 1e-5,-3e-5 z"
             id="path2682" />
          <path
             style="fill:#ffffff;fill-opacity:1;stroke:#000000;stroke-width:2.52538133;stroke-miterlimit:4;stroke-opacity:1;stroke-dasharray:none"
             d="m 323.21577,499.76109 c -0.37168,-0.69448 -0.96488,-1.26269 -1.31823,-1.26269 -0.35336,0 -0.79189,-0.24178 -0.97453,-0.53729 -0.22405,-0.36254 0.24025,-0.42992 1.42758,-0.20718 2.26118,0.42421 2.60599,-0.18653 1.5688,-2.77873 -1.06199,-2.65416 -0.63773,-3.11296 0.73196,-0.79152 0.58065,0.98415 1.40432,1.78934 1.83038,1.78934 0.81066,0 1.07895,-3.46958 0.85921,-11.11168 l -0.0944,-3.283 0.97809,2.32642 c 1.36416,3.24474 2.23505,9.79142 1.48817,11.18697 -0.68757,1.28473 -4.97341,5.93205 -5.47064,5.93205 -0.19284,0 -0.65471,-0.56821 -1.02638,-1.26269 z"
             id="path2684" />
        </g>
        <g
           id="g15097">
          <flowRoot
             inkscape:export-ydpi="600"
             inkscape:export-xdpi="600"
             inkscape:export-filename="/home/zam/m.winkel/schild/schild.png"
             inkscape:transform-center-y="-14.324002"
             inkscape:transform-center-x="-62.86375"
             transform="matrix(1,-0.03976855,0,1,196.42857,157.94959)"
             style="font-size:32px;font-style:normal;font-variant:normal;font-weight:normal;font-stretch:normal;text-align:start;line-height:125%;writing-mode:lr-tb;text-anchor:start;fill:#000000;fill-opacity:1;stroke:none;display:inline;font-family:Venus Rising;-inkscape-font-specification:Venus Rising"
             id="flowRoot3462"
             xml:space="preserve"><flowRegion
               id="flowRegion3464"><rect
                 style="font-size:32px;font-style:normal;font-variant:normal;font-weight:normal;font-stretch:normal;text-align:start;line-height:125%;writing-mode:lr-tb;text-anchor:start;font-family:Venus Rising;-inkscape-font-specification:Venus Rising"
                 y="394.50504"
                 x="127.14286"
                 height="70"
                 width="151.42857"
                 id="rect3466" /></flowRegion><flowPara
               style="font-size:32px;font-style:normal;font-variant:normal;font-weight:normal;font-stretch:normal;text-align:start;line-height:125%;writing-mode:lr-tb;text-anchor:start;font-family:Venus Rising;-inkscape-font-specification:Venus Rising"
               id="flowPara3468">PEPC</flowPara></flowRoot>          <path
             transform="matrix(-0.02833011,-0.7186921,0.7838353,-0.02597564,416.82703,591.76175)"
             id="path2674"
             style="fill:none;stroke:#000000;stroke-width:4.38938284;stroke-miterlimit:4;stroke-opacity:1;display:inline"
             d="m 67.836226,-212.72068 c 3.183111,3.72849 1.106954,9.45277 -4.634295,12.7774 -5.741241,3.32462 -12.984213,2.99685 -16.167328,-0.73166 -3.18313,-3.7285 -1.106969,-9.45278 4.634278,-12.7774 5.741237,-3.32465 12.984201,-2.99687 16.167345,0.73166 z m -21.084675,12.01533 c 3.183125,3.72849 1.106969,9.45278 -4.634282,12.77739 -5.74124,3.32465 -12.984202,2.99687 -16.167335,-0.73166 -3.183124,-3.72849 -1.106959,-9.45276 4.634292,-12.77739 5.741231,-3.32465 12.984205,-2.99686 16.167325,0.73166 z m -5.626448,-3.44753 2.816884,-1.63119 7.775088,9.10723 -2.816887,1.63119 -7.775085,-9.10723 z"
             inkscape:transform-center-x="4.2857143"
             inkscape:transform-center-y="-4.2857143" />
          <path
             transform="matrix(-0.02833011,-0.7186921,0.7838353,-0.02597564,416.82703,591.76175)"
             style="fill:none;stroke:#000000;stroke-width:4.54295349;stroke-miterlimit:4;stroke-opacity:1;stroke-dasharray:none;display:inline"
             d="m 18.367584,-188.50513 c -6.083197,0.16087 -11.4497565,1.3981 -14.2082213,3.53303 -4.69902091,3.6368 -0.055334,8.53135 10.3932463,10.93925 10.448597,2.40791 22.74792,1.41791 27.446933,-2.21891 2.666902,-2.06406 2.343366,-4.53949 -0.368011,-6.73244 -3.894068,0.57568 -9.129616,0.33153 -14.015116,-0.79434 -5.045161,-1.16267 -8.416445,-2.98076 -9.248831,-4.72659 z"
             id="path2676" />
          <g
             id="g2694"
             transform="matrix(1.1226356,0,0,1.9881732,31.86059,113.99254)"
             inkscape:export-filename="/home/zam/m.winkel/schild/schild.png"
             inkscape:export-xdpi="600"
             inkscape:export-ydpi="600"
             style="display:inline">
            <path
               sodipodi:nodetypes="cc"
               id="path2696"
               d="m 302.85379,133.20284 24.08086,-13.8664"
               style="fill:none;stroke:#000000;stroke-width:1px;stroke-linecap:butt;stroke-linejoin:miter;stroke-opacity:1;marker-start:url(#DotM);marker-mid:url(#DotM);marker-end:url(#DotM)" />
            <g
               id="g2698">
              <path
                 style="fill:none;stroke:#000000;stroke-width:1px;stroke-linecap:butt;stroke-linejoin:miter;stroke-opacity:1;marker-start:url(#DotM);marker-mid:url(#DotM);marker-end:url(#DotM)"
                 d="m 332.85714,99.505038 -6.07143,20.000002 15.00001,-19.821431"
                 id="path2700" />
              <path
                 style="fill:none;stroke:#000000;stroke-width:1px;stroke-linecap:butt;stroke-linejoin:miter;stroke-opacity:1;marker-start:url(#DotM);marker-mid:url(#DotM);marker-end:url(#DotM)"
                 d="m 325.17857,99.683609 1.42857,19.821431 -8.75,-19.642859"
                 id="path2702" />
              <path
                 style="fill:none;stroke:#000000;stroke-width:1px;stroke-linecap:butt;stroke-linejoin:miter;stroke-opacity:1;marker-start:url(#DotM);marker-mid:url(#DotM);marker-end:url(#DotM)"
                 d="m 311.25,99.683609 15.53571,20.000001 20.89286,-19.821433"
                 id="path2704"
                 sodipodi:nodetypes="ccc" />
              <path
                 style="fill:none;stroke:#000000;stroke-width:1px;stroke-linecap:butt;stroke-linejoin:miter;stroke-opacity:1;marker-start:url(#DotM);marker-mid:url(#DotM);marker-end:url(#DotM)"
                 d="m 305.53571,99.683609 21.25,19.642861 28.57143,-19.28572"
                 id="path2706" />
            </g>
            <g
               transform="matrix(-1,0,0,1,604.52242,-0.06846833)"
               id="g2708">
              <path
                 style="fill:none;stroke:#000000;stroke-width:1px;stroke-linecap:butt;stroke-linejoin:miter;stroke-opacity:1;marker-start:url(#DotM);marker-mid:url(#DotM);marker-end:url(#DotM)"
                 d="m 332.85714,99.505038 -6.07143,20.000002 15.00001,-19.821431"
                 id="path2710" />
              <path
                 style="fill:none;stroke:#000000;stroke-width:1px;stroke-linecap:butt;stroke-linejoin:miter;stroke-opacity:1;marker-start:url(#DotM);marker-mid:url(#DotM);marker-end:url(#DotM)"
                 d="m 325.17857,99.683609 1.42857,19.821431 -8.75,-19.642859"
                 id="path2712" />
              <path
                 style="fill:none;stroke:#000000;stroke-width:1px;stroke-linecap:butt;stroke-linejoin:miter;stroke-opacity:1;marker-start:url(#DotM);marker-mid:url(#DotM);marker-end:url(#DotM)"
                 d="m 311.25,99.683609 15.53571,20.000001 20.89286,-19.821433"
                 id="path2714"
                 sodipodi:nodetypes="ccc" />
              <path
                 style="fill:none;stroke:#000000;stroke-width:1px;stroke-linecap:butt;stroke-linejoin:miter;stroke-opacity:1;marker-start:url(#DotM);marker-mid:url(#DotM);marker-end:url(#DotM)"
                 d="m 305.53571,99.683609 21.25,19.642861 28.57143,-19.28572"
                 id="path2716" />
            </g>
            <path
               sodipodi:nodetypes="cc"
               id="path2718"
               d="M 302.80797,133.20658 277.65568,119.87589"
               style="fill:none;stroke:#000000;stroke-width:1px;stroke-linecap:butt;stroke-linejoin:miter;stroke-opacity:1;marker-start:url(#DotM);marker-mid:url(#DotM);marker-end:url(#DotM)" />
          </g>
        </g>
      </g>
    </g>
  </g>
</svg>
